<svg xmlns="http://www.w3.org/2000/svg" viewBox="0 0 160 100" width="160" height="100">
  <defs>
    <linearGradient id="bg" x1="0%" y1="0%" x2="100%" y2="100%">
      <stop offset="0%" style="stop-color:#1a1a2e"/>
      <stop offset="100%" style="stop-color:#0d0d1a"/>
    </linearGradient>
  </defs>
  <rect width="160" height="100" fill="url(#bg)"/>
  <!-- Muscle car silhouette - wide/long hood -->
  <path d="M12,66 L18,52 L38,44 L55,38 L105,38 L122,44 L142,52 L148,66 Z" fill="#2a2a3a" stroke="#888" stroke-width="1"/>
  <!-- Long hood -->
  <path d="M18,52 L38,44 L55,38 L55,52 Z" fill="#232335"/>
  <!-- Roof -->
  <path d="M60,38 L68,26 L92,24 L116,30 L122,38" fill="#333345" stroke="#aaa" stroke-width="0.8"/>
  <!-- Windshield -->
  <path d="M65,38 L72,27 L92,25 L112,34 L116,38" fill="#4a6fa5" opacity="0.7"/>
  <!-- Wheels -->
  <circle cx="46" cy="66" r="13" fill="#111" stroke="#555" stroke-width="1.5"/>
  <circle cx="46" cy="66" r="7" fill="#222" stroke="#777" stroke-width="1"/>
  <circle cx="114" cy="66" r="13" fill="#111" stroke="#555" stroke-width="1.5"/>
  <circle cx="114" cy="66" r="7" fill="#222" stroke="#777" stroke-width="1"/>
  <!-- Ground line -->
  <line x1="10" y1="79" x2="150" y2="79" stroke="#444" stroke-width="0.5"/>
  <!-- Label -->
  <text x="80" y="93" font-family="Arial, sans-serif" font-size="9" fill="#aaa" text-anchor="middle" letter-spacing="1">CONCEPT 033</text>
</svg>
